<svg width="21" height="21" viewBox="0 0 21 21" fill="none" xmlns="http://www.w3.org/2000/svg">
<g clip-path="url(#clip0_307_894)">
<path d="M16.625 0.874756H4.375C3.2151 0.876145 2.10311 1.33753 1.28294 2.1577C0.462772 2.97787 0.00138938 4.08986 0 5.24976L0 15.7498C0.00138938 16.9097 0.462772 18.0216 1.28294 18.8418C2.10311 19.662 3.2151 20.1234 4.375 20.1248H16.625C17.7849 20.1234 18.8969 19.662 19.7171 18.8418C20.5372 18.0216 20.9986 16.9097 21 15.7498V5.24976C20.9986 4.08986 20.5372 2.97787 19.7171 2.1577C18.8969 1.33753 17.7849 0.876145 16.625 0.874756ZM4.375 2.62476H16.625C17.1489 2.62579 17.6606 2.78358 18.0941 3.07783C18.5276 3.37209 18.8631 3.78933 19.0575 4.27588L12.3567 10.9775C11.8636 11.4687 11.196 11.7444 10.5 11.7444C9.80401 11.7444 9.13637 11.4687 8.64325 10.9775L1.9425 4.27588C2.13688 3.78933 2.47241 3.37209 2.90592 3.07783C3.33942 2.78358 3.85106 2.62579 4.375 2.62476ZM16.625 18.3748H4.375C3.67881 18.3748 3.01113 18.0982 2.51884 17.6059C2.02656 17.1136 1.75 16.4459 1.75 15.7498V6.56226L7.406 12.2148C8.2273 13.034 9.33997 13.494 10.5 13.494C11.66 13.494 12.7727 13.034 13.594 12.2148L19.25 6.56226V15.7498C19.25 16.4459 18.9734 17.1136 18.4812 17.6059C17.9889 18.0982 17.3212 18.3748 16.625 18.3748Z" fill="white"/>
</g>
<defs>
<clipPath id="clip0_307_894">
<rect width="21" height="21" fill="white"/>
</clipPath>
</defs>
</svg>
