<svg width="21" height="21" viewBox="0 0 21 21" fill="none" xmlns="http://www.w3.org/2000/svg">
<g clip-path="url(#clip0_307_899)">
<path d="M16.6249 7.371V6.125C16.6249 4.50055 15.9796 2.94263 14.831 1.79397C13.6823 0.645311 12.1244 0 10.4999 0C8.87549 0 7.31757 0.645311 6.16891 1.79397C5.02025 2.94263 4.37494 4.50055 4.37494 6.125V7.371C3.59563 7.71112 2.93232 8.27096 2.46613 8.98206C1.99993 9.69316 1.75106 10.5247 1.74994 11.375V16.625C1.75133 17.7849 2.21271 18.8969 3.03288 19.7171C3.85305 20.5372 4.96504 20.9986 6.12494 21H14.8749C16.0348 20.9986 17.1468 20.5372 17.967 19.7171C18.7872 18.8969 19.2486 17.7849 19.2499 16.625V11.375C19.2488 10.5247 18.9999 9.69316 18.5338 8.98206C18.0676 8.27096 17.4042 7.71112 16.6249 7.371ZM6.12494 6.125C6.12494 4.96468 6.58588 3.85188 7.40635 3.03141C8.22682 2.21094 9.33962 1.75 10.4999 1.75C11.6603 1.75 12.7731 2.21094 13.5935 3.03141C14.414 3.85188 14.8749 4.96468 14.8749 6.125V7H6.12494V6.125ZM17.4999 16.625C17.4999 17.3212 17.2234 17.9889 16.7311 18.4812C16.2388 18.9734 15.5711 19.25 14.8749 19.25H6.12494C5.42875 19.25 4.76107 18.9734 4.26878 18.4812C3.7765 17.9889 3.49994 17.3212 3.49994 16.625V11.375C3.49994 10.6788 3.7765 10.0111 4.26878 9.51884C4.76107 9.02656 5.42875 8.75 6.12494 8.75H14.8749C15.5711 8.75 16.2388 9.02656 16.7311 9.51884C17.2234 10.0111 17.4999 10.6788 17.4999 11.375V16.625Z" fill="white"/>
<path d="M10.4999 12.2498C10.2679 12.2498 10.0453 12.3419 9.88122 12.506C9.71713 12.6701 9.62494 12.8927 9.62494 13.1248V14.8748C9.62494 15.1068 9.71713 15.3294 9.88122 15.4935C10.0453 15.6576 10.2679 15.7497 10.4999 15.7497C10.732 15.7497 10.9546 15.6576 11.1187 15.4935C11.2828 15.3294 11.3749 15.1068 11.3749 14.8748V13.1248C11.3749 12.8927 11.2828 12.6701 11.1187 12.506C10.9546 12.3419 10.732 12.2498 10.4999 12.2498Z" fill="white"/>
</g>
<defs>
<clipPath id="clip0_307_899">
<rect width="21" height="21" fill="white"/>
</clipPath>
</defs>
</svg>
